# xmcd
#
# Track frame offsets: 
#        150
#        19194
#        34843
#        50550
#        75104
#        92259
#        123254
#        139983
#        168170
#        198027
#        212692
#
# Disc length: 3111 seconds
#
# Revision: 0
# Processed by: cddbd v1.5.2PL0 Copyright (c) Steve Scherf et al.
# Submitted via: ExactAudioCopy v1.0b3
#
DISCID=800c250b
DTITLE=Lucky Peterson - Every Second A Fool Is Born
DYEAR=2011
DGENRE=Blues
TTITLE0=Ain't Going To Boss Me
TTITLE1=I Can Do Better By Myself
TTITLE2=Changing Ways
TTITLE3=Every Second A Fool Is Born
TTITLE4=Baby Please
TTITLE5=Love Me
TTITLE6=After The Dance
TTITLE7=My Baby Changed
TTITLE8=Running Down The Railroad
TTITLE9=Have Mercy On Us
TTITLE10=Lucky's Blues
EXTD=
EXTT0=
EXTT1=
EXTT2=
EXTT3=
EXTT4=
EXTT5=
EXTT6=
EXTT7=
EXTT8=
EXTT9=
EXTT10=
PLAYORDER=
